<?xml version="1.0" encoding="utf-8"?>
<!-- Generator: Adobe Illustrator 22.1.0, SVG Export Plug-In . SVG Version: 6.00 Build 0)  -->
<svg version="1.1" id="Слой_1" xmlns="http://www.w3.org/2000/svg" xmlns:xlink="http://www.w3.org/1999/xlink" x="0px" y="0px"
	 viewBox="0 0 600 250" style="enable-background:new 0 0 600 250;" xml:space="preserve">
<style type="text/css">
	.st0{fill:#FFFFFF;}
</style>
<g id="XMLID_2_">
	<path id="XMLID_15_" class="st0" d="M47,235v-68.9L0,42.6h23.6l41.5,86.5L105,14l14.8,8.7L68.7,166.9V235H47z"/>
	<path id="XMLID_33_" class="st0" d="M193.3,226.3h-18.1c-0.8-3-1.6-7.3-1.9-10.8h-1.4c-6,7.5-13.7,12.6-25.8,12.6
		c-19.8,0-33.3-14.5-33.3-41.2c0-29.1,15.1-47.4,53.9-47.4h3v-8.1c0-17.8-6-25.3-18.1-25.3c-11,0-20.3,5.7-27.5,11.8l-4.1-18.6
		c6.3-5.1,19-10.8,33-10.8c24.5,0,37.9,10.2,37.9,43v63.8C190.8,208.5,192.2,219.8,193.3,226.3z M169.6,155.5h-2.5
		c-26.7,0-32.4,11.6-32.4,29.1c0,15.6,5.2,25.8,16.2,25.8c7.4,0,14.8-4.8,18.7-10.8V155.5z M238.9,226.3h-21.4V90.4h21.4v11.8h1.4
		c3.8-5.1,14.3-13.5,27.2-13.5c18.1,0,27.8,10,27.8,30.7v106.8h-21.7V121.4c0-10.2-4.7-13.7-12.9-13.7c-9.1,0-16.8,6.7-21.7,13.5
		V226.3z M316.4,163.6c0-50.3,19.2-74.8,47-74.8c6.6,0,13.5,2.2,17.6,5.1v-60h21.4v192.4h-15.9l-1.6-10.8h-1.4
		c-6,7.5-13.7,12.6-25,12.6C331.2,228.2,316.4,205.6,316.4,163.6z M381,112.5c-4.4-4.3-9.1-6.5-16.2-6.5
		c-17.3,0-25.6,25.6-25.6,53.3c0,31.7,6,51.1,21.7,51.1c10.7,0,16.5-5.1,20.1-10.5V112.5z M470,228.2c-28.6,0-46.2-22.3-46.2-64
		c0-43.6,12.4-75.3,41.8-75.3c23.1,0,38.2,17,38.2,63v11.6h-57.7c0,30.7,8.8,46.8,25.8,46.8c12.1,0,20.9-5.4,26.4-9.1l4.9,16.1
		C494.5,223.9,483.7,228.2,470,228.2z M446.4,146.1h35.5c0-23.1-3.8-40.1-16.2-40.1C452.4,106,447.7,121.9,446.4,146.1z M597,90.7
		l-25.8,63.5l28.9,72.1h-22.3l-21.4-56l-20.9,56h-21.2l28.9-70.2L517,90.7h22.3l17.9,49.2l19-49.2H597z"/>
</g>
</svg>
