<?xml version="1.0" encoding="UTF-8"?>
<!DOCTYPE svg PUBLIC "-//W3C//DTD SVG 1.1//EN" "http://www.w3.org/Graphics/SVG/1.1/DTD/svg11.dtd">
<!-- Creator: CorelDRAW X6 -->
<svg xmlns="http://www.w3.org/2000/svg" xml:space="preserve" width="7.45833in" height="4.27778in" version="1.1" style="shape-rendering:geometricPrecision; text-rendering:geometricPrecision; image-rendering:optimizeQuality; fill-rule:evenodd; clip-rule:evenodd"
viewBox="0 0 7458 4278"
 xmlns:xlink="http://www.w3.org/1999/xlink">
 <defs>
  <style type="text/css">
   <![CDATA[
    .fil1 {fill:#222124;fill-rule:nonzero}
    .fil0 {fill:#EE403D;fill-rule:nonzero}
   ]]>
  </style>
 </defs>
 <g id="Layer_x0020_1">
  <metadata id="CorelCorpID_0Corel-Layer"/>
  <polygon class="fil0" points="1635,2948 1635,2365 1246,1319 1442,1319 1729,2126 2059,1151 2239,1151 1815,2372 1815,2948 "/>
  <path class="fil1" d="M6135 1800l-214 537 239 610 -184 0 -178 -474 -173 474 -175 0 239 -594 -216 -553 184 0 148 417 157 -417 173 0zm-1248 469l294 0c0,-196 -32,-339 -134,-339 -109,0 -148,134 -159,339zm196 695c-237,0 -383,-189 -383,-542 0,-369 102,-638 346,-638 191,0 317,143 317,533l0 98 -478 0c0,260 73,396 214,396 100,0 173,-46 219,-77l41 137c-73,57 -162,93 -276,93zm-738 -979c-36,-36 -75,-55 -134,-55 -143,0 -212,216 -212,451 0,269 50,433 180,433 89,0 137,-43 166,-89l0 -740zm-535 433c0,-426 159,-633 389,-633 55,0 112,18 146,43l0 -508 178 0 0 1628 -132 0 -14 -91 -11 0c-50,64 -114,107 -207,107 -225,0 -348,-191 -348,-547zm-642 531l-178 0 0 -1150 178 0 0 100 11 0c32,-43 118,-114 225,-114 150,0 230,84 230,260l0 904 -180 0 0 -888c0,-87 -39,-116 -107,-116 -75,0 -139,57 -180,114l0 890zm-574 -599l-20 0c-221,0 -269,98 -269,246 0,132 43,219 134,219 61,0 123,-41 155,-91l0 -373zm196 599l-150 0c-7,-25 -14,-61 -16,-91l-11 0c-50,64 -114,107 -214,107 -164,0 -276,-123 -276,-348 0,-246 125,-401 446,-401l25 0 0 -68c0,-150 -50,-214 -150,-214 -91,0 -169,48 -228,100l-34 -157c52,-43 157,-91 273,-91 203,0 314,87 314,364l0 540c0,109 11,205 21,260z"/>
 </g>
</svg>
