<?xml version="1.0" encoding="utf-8"?>
<!-- Generator: Adobe Illustrator 22.1.0, SVG Export Plug-In . SVG Version: 6.00 Build 0)  -->
<svg version="1.1" id="Слой_1" xmlns="http://www.w3.org/2000/svg" xmlns:xlink="http://www.w3.org/1999/xlink" x="0px" y="0px"
	 viewBox="0 0 600 200" style="enable-background:new 0 0 600 200;" xml:space="preserve">
<style type="text/css">
	.st0{fill:#FFFFFF;}
</style>
<g>
	<path class="st0" d="M116.7,92.9h-50c-1.3,0-2.3,1-2.3,2.3v24.5c0,1.3,1,2.3,2.3,2.3h19.5v30.4c0,0-4.4,1.5-16.5,1.5
		c-14.3,0-34.3-5.2-34.3-49.1c0-43.9,20.8-49.7,40.3-49.7c16.9,0,24.2,3,28.8,4.4c1.5,0.4,2.8-1,2.8-2.3l5.6-23.6
		c0-0.6-0.2-1.3-0.9-1.8c-1.9-1.3-13.4-7.8-42.3-7.8C36.3,24,2,38.2,2,106.5C2,174.8,41.2,185,74.3,185c27.4,0,44-11.7,44-11.7
		c0.7-0.4,0.8-1.3,0.8-1.8V95.2C119,94,118,92.9,116.7,92.9z"/>
	<path class="st0" d="M374.5,32.2c0-1.3-1-2.4-2.3-2.4H344c-1.3,0-2.3,1.1-2.3,2.4c0,0,0,54.4,0,54.4h-43.9V32.2
		c0-1.3-1-2.4-2.3-2.4h-28.2c-1.3,0-2.3,1.1-2.3,2.4v147.4c0,1.3,1,2.4,2.3,2.4h28.2c1.3,0,2.3-1.1,2.3-2.4v-63h43.9
		c0,0-0.1,63-0.1,63c0,1.3,1,2.4,2.3,2.4h28.2c1.3,0,2.3-1.1,2.3-2.4V32.2z"/>
	<g>
		<g>
			<path class="st0" d="M169.8,51.5c0-10.1-8.1-18.3-18.2-18.3c-10,0-18.2,8.2-18.2,18.3c0,10.1,8.1,18.4,18.2,18.4
				C161.7,69.9,169.8,61.7,169.8,51.5z"/>
			<path class="st0" d="M167.8,148.5c0-3.8,0-68,0-68c0-1.3-1-2.3-2.3-2.3h-28.1c-1.3,0-2.4,1.3-2.4,2.6c0,0,0,81.9,0,97.5
				c0,2.9,1.8,3.7,4.1,3.7c0,0,12,0,25.3,0c2.8,0,3.5-1.4,3.5-3.8C167.8,172.9,167.8,152.5,167.8,148.5z"/>
		</g>
	</g>
	<path class="st0" d="M481.5,78.3h-28c-1.3,0-2.3,1.1-2.3,2.4V153c0,0-7.1,5.2-17.2,5.2c-10.1,0-12.8-4.6-12.8-14.4c0-9.9,0-63,0-63
		c0-1.3-1-2.4-2.3-2.4h-28.4c-1.3,0-2.3,1.1-2.3,2.4c0,0,0,38.5,0,67.8c0,29.3,16.3,36.5,38.8,36.5c18.4,0,33.3-10.2,33.3-10.2
		s0.7,5.4,1,6c0.3,0.6,1.2,1.3,2.1,1.3l18-0.1c1.3,0,2.3-1.1,2.3-2.4l0-98.9C483.9,79.4,482.8,78.3,481.5,78.3z"/>
	<path class="st0" d="M557.9,75c-15.9,0-26.7,7.1-26.7,7.1V32.2c0-1.3-1-2.4-2.3-2.4h-28.2c-1.3,0-2.3,1.1-2.3,2.4v147.4
		c0,1.3,1,2.4,2.3,2.4c0,0,19.6,0,19.6,0c0.9,0,1.6-0.5,2-1.3c0.5-0.8,1.2-6.8,1.2-6.8s11.6,10.9,33.4,10.9
		c25.7,0,40.4-13,40.4-58.5C597.3,81,573.8,75,557.9,75z M546.9,158.1c-9.7-0.3-16.3-4.7-16.3-4.7v-46.7c0,0,6.5-4,14.4-4.7
		c10.1-0.9,19.8,2.1,19.8,26.2C564.9,153.5,560.5,158.5,546.9,158.1z"/>
	<path class="st0" d="M248.8,78.1h-21.1c0,0,0-27.9,0-27.9c0-1.1-0.5-1.6-1.8-1.6H197c-1.1,0-1.7,0.5-1.7,1.6V79
		c0,0-14.4,3.5-15.4,3.8c-1,0.3-1.7,1.2-1.7,2.2v18.1c0,1.3,1,2.4,2.3,2.4h14.8c0,0,0,19,0,43.6c0,32.4,22.7,35.6,38.1,35.6
		c7,0,15.4-2.2,16.8-2.8c0.8-0.3,1.3-1.2,1.3-2.1l0-19.9c0-1.3-1.1-2.4-2.3-2.4c-1.2,0-4.4,0.5-7.6,0.5c-10.4,0-13.9-4.8-13.9-11.1
		c0-6.2,0-41.4,0-41.4h21.1c1.3,0,2.3-1.1,2.3-2.4V80.4C251.1,79.1,250.1,78.1,248.8,78.1z"/>
</g>
</svg>
